#!OML:ASF H:\BreakDance\Project 1\Capture day 1\Session 1\Male.ASF
:FULLY-SPECIFIED
:DEGREES
1278
root -5.20904 8.54458 -0.70563 354.737 -24.5764 -25.9572
lowerback 24.6238 1.58797 -4.45546
upperback 13.2327 0.672877 -3.37276
thorax 0.937044 0.0348449 -1.27112
lowerneck -3.05985 -4.49677 -6.52876
upperneck 12.3608 -8.33632 19.7776
head 5.28859 -3.48756 6.87668
rclavicle 2.54444e-014 1.27222e-014
rhumerus 12.1552 5.18555 -73.7842
rradius 70.342
rwrist -12.9333
rhand -35.6149 1.42317
rfingers 7.12502
rthumb -8.73816 -28.376
lclavicle 2.54444e-014 1.27222e-014
lhumerus -18.8775 53.1155 55.0333
lradius 11.0594
lwrist -5.73437
lhand -18.0857 -1.74763
lfingers 7.12502
lthumb 8.1876 28.0737
rfemur -63.849 -26.0598 -2.58259
rtibia 105.739
rfoot -11.1284 18.1386
rtoes -25.6872
lfemur -105.841 45.1391 -1.05699
ltibia 130.107
lfoot -14.9328 -24.4185
ltoes -34.1529
1279
root -5.09794 8.58385 -0.659812 354.461 -23.9516 -25.0658
lowerback 24.8804 1.27708 -4.93527
upperback 13.1601 0.171584 -3.07444
thorax 0.739829 -0.245128 -0.562691
lowerneck -3.12218 -4.59135 -6.56465
upperneck 12.0218 -8.37496 19.5672
head 5.1954 -3.5268 6.80101
rclavicle -1.11319e-014 -6.36111e-015
rhumerus 9.92416 4.01864 -76.5208
rradius 66.7995
rwrist -13.7889
rhand -36.71 0.344478
rfingers 7.12502
rthumb -9.79483 -29.4077
lclavicle -1.11319e-014 -6.36111e-015
lhumerus -19.6374 52.2307 54.7548
lradius 11.1627
lwrist -8.56473
lhand -10.921 0.903069
lfingers 7.12502
lthumb 15.0966 30.3325
rfemur -63.9732 -22.61 -4.51855
rtibia 100.882
rfoot -9.70041 14.3248
rtoes -21.8362
lfemur -106.66 52.3755 0.423697
ltibia 133.372
lfoot -15.8286 -29.3699
ltoes -32.8608
1280
root -4.99267 8.61036 -0.614999 354.238 -23.3062 -24.186
lowerback 25.1856 0.95983 -5.40451
upperback 13.1101 -0.340785 -2.7663
thorax 0.562759 -0.530013 0.156201
lowerneck -3.21927 -4.69757 -6.61983
upperneck 11.5919 -8.42829 19.4574
head 5.08859 -3.57193 6.75995
rclavicle -2.38542e-014 3.18055e-014
rhumerus 7.84044 2.55209 -78.938
rradius 63.2143
rwrist -14.6658
rhand -37.7284 -1.19615
rfingers 7.12502
rthumb -10.7773 -30.8997
lclavicle -2.38542e-014 3.18055e-014
lhumerus -19.6145 48.6246 55.6979
lradius 11.91
lwrist -9.58722
lhand -3.98135 2.65309
lfingers 7.12502
lthumb 21.7719 31.4486
rfemur -63.8975 -19.2647 -6.70118
rtibia 95.7165
rfoot -8.78452 11.24
rtoes -19.4609
lfemur -107.037 59.4903 2.58476
ltibia 136.063
lfoot -16.8899 -34.1622
ltoes -31.4645
1281
root -4.89343 8.62194 -0.569742 354.096 -22.6817 -23.2844
lowerback 25.4368 0.671275 -5.86597
upperback 13.0928 -0.811246 -2.44818
thorax 0.463332 -0.795295 0.8744
lowerneck -3.29581 -4.84725 -6.74707
upperneck 11.0223 -8.53183 19.4734
head 4.95211 -3.64668 6.76895
rclavicle 6.99722e-014 4.13472e-014
rhumerus 5.92882 0.834932 -80.9369
rradius 59.5901
rwrist -15.5112
rhand -38.5045 -3.33784
rfingers 7.12502
rthumb -11.5258 -33.0009
lclavicle 6.99722e-014 4.13472e-014
lhumerus -19.2472 43.081 57.4274
lradius 13.382
lwrist -9.28939
lhand 2.05121 3.04024
lfingers 7.12502
lthumb 27.5536 31.0436
rfemur -63.7415 -16.0136 -9.12026
rtibia 90.3936
rfoot -8.28055 8.89435
rtoes -19.2523
lfemur -106.141 65.6266 6.02099
ltibia 138.074
lfoot -17.2819 -38.6758
ltoes -29.7498
1282
root -4.80063 8.61717 -0.52174 354.089 -22.1054 -22.3313
lowerback 25.5202 0.421743 -6.18132
upperback 13.0975 -1.18896 -2.20599
thorax 0.469207 -1.00597 1.40542
lowerneck -3.27254 -5.07702 -6.92753
upperneck 10.2718 -8.74604 19.7157
head 4.77317 -3.78311 6.85527
rclavicle 1.27222e-014 1.27222e-014
rhumerus 4.14935 -1.22204 -82.5736
rradius 55.8986
rwrist -16.3288
rhand -38.8887 -6.1485
rfingers 7.12502
rthumb -11.8964 -35.7905
lclavicle 1.27222e-014 1.27222e-014
lhumerus -18.9002 36.761 59.2941
lradius 15.5568
lwrist -8.52252
lhand 6.13304 1.97174
lfingers 7.12502
lthumb 31.4501 29.2864
rfemur -63.6636 -12.8967 -11.7806
rtibia 84.9131
rfoot -7.81714 7.3126
rtoes -20.5035
lfemur -103.238 70.2362 10.9404
ltibia 139.319
lfoot -17.1969 -42.4703
ltoes -29.0446
1283
root -4.76126 8.54655 -0.443466 354.26 -21.5945 -21.3918
lowerback 25.3763 0.204562 -6.2213
upperback 13.1131 -1.44891 -2.04927
thorax 0.578642 -1.14248 1.65634
lowerneck -3.06507 -5.40289 -7.09475
upperneck 9.31858 -9.08603 20.133
head 4.52987 -3.99595 6.99164
rclavicle -6.36111e-015 -9.54166e-015
rhumerus 2.48648 -3.60343 -83.8712
rradius 52.0956
rwrist -17.2085
rhand -38.7953 -9.59809
rfingers 7.12502
rthumb -11.8063 -39.2453
lclavicle -6.36111e-015 -9.54166e-015
lhumerus -18.7064 30.6751 60.913
lradius 18.343
lwrist -7.82288
lhand 7.57808 -0.149115
lfingers 7.12502
lthumb 32.8258 26.8877
rfemur -64.117 -10.1433 -14.6746
rtibia 79.7429
rfoot -7.15914 6.44179
rtoes -21.8144
lfemur -98.2744 74.2599 17.9776
ltibia 140.034
lfoot -16.7722 -47.1042
ltoes -28.1696
1284
root -4.67945 8.51328 -0.38145 354.56 -21.1259 -20.3119
lowerback 24.974 0.0348495 -6.13912
upperback 13.1298 -1.60304 -1.98317
thorax 0.796697 -1.21778 1.70873
lowerneck -2.6888 -5.81618 -7.26527
upperneck 8.23111 -9.53538 20.6472
head 4.24264 -4.27881 7.15851
rclavicle 2.8625e-014 6.04305e-014
rhumerus 0.959097 -6.18216 -84.8002
rradius 48.1327
rwrist -18.2835
rhand -38.165 -13.7024
rfingers 7.12502
rthumb -11.1984 -43.3835
lclavicle 2.8625e-014 6.04305e-014
lhumerus -18.5961 25.421 62.2075
lradius 21.6006
lwrist -7.16719
lhand 6.15815 -2.65415
lfingers 7.12502
lthumb 31.474 24.6559
rfemur -64.4051 -7.57944 -17.6414
rtibia 74.2529
rfoot -6.30666 5.56068
rtoes -24.0374
lfemur -91.0089 75.628 25.0092
ltibia 139.734
lfoot -16.5975 -50.1927
ltoes -27.7944
1285
root -4.59742 8.47067 -0.314589 354.893 -20.6691 -19.0971
lowerback 24.4108 -0.0740845 -5.99337
upperback 13.1659 -1.65496 -1.96367
thorax 1.10202 -1.23849 1.64616
lowerneck -2.22843 -6.31268 -7.42205
upperneck 7.1331 -10.0947 21.1632
head 3.95948 -4.62489 7.32142
rclavicle -3.65764e-014 -9.54166e-015
rhumerus -0.411462 -8.83595 -85.3315
rradius 43.9837
rwrist -19.6842
rhand -37.0801 -18.0929
rfingers 7.12502
rthumb -10.152 -47.828
lclavicle -3.65764e-014 -9.54166e-015
lhumerus -18.4236 21.0497 63.281
lradius 25.214
lwrist -6.24932
lhand 2.26559 -4.69888
lfingers 7.12502
lthumb 27.7586 23.2716
rfemur -64.8639 -5.49668 -20.6257
rtibia 68.9727
rfoot -5.2149 4.56003
rtoes -26.2954
lfemur -83.7413 76.0641 30.6162
ltibia 139.029
lfoot -18.6393 -52.6095
ltoes -29.0924
1286
root -4.51296 8.41918 -0.243448 355.225 -20.2197 -17.7985
lowerback 23.7448 -0.130268 -5.80107
upperback 13.224 -1.62363 -1.94166
thorax 1.47511 -1.21637 1.53861
lowerneck -1.79479 -6.88656 -7.53945
upperneck 6.181 -10.769 21.5605
head 3.7386 -5.02385 7.43266
rclavicle 2.70347e-014 5.08889e-014
rhumerus -1.62829 -11.4079 -85.4626
rradius 39.6614
rwrist -21.3547
rhand -35.5146 -22.5993
rfingers 7.12502
rthumb -8.64139 -52.4025
lclavicle 2.70347e-014 5.08889e-014
lhumerus -18.1321 17.5469 64.2197
lradius 29.1059
lwrist -4.86114
lhand -3.25885 -5.96128
lfingers 7.12502
lthumb 22.4655 22.752
rfemur -65.4689 -4.00214 -23.371
rtibia 63.9359
rfoot -3.7503 3.3374
rtoes -27.1042
lfemur -77.0676 76.2402 34.7865
ltibia 138.277
lfoot -22.48 -54.6568
ltoes -30.3595
1287
root -4.42456 8.35881 -0.168968 355.545 -19.8054 -16.5902
lowerback 23.0836 -0.164205 -5.51607
upperback 13.2894 -1.54907 -1.82175
thorax 1.85265 -1.17117 1.47585
lowerneck -1.48102 -7.51412 -7.69281
upperneck 5.52158 -11.5401 21.7581
head 3.63335 -5.45392 7.47415
rclavicle -3.18055e-014 -1.90833e-014
rhumerus -2.73506 -13.6525 -85.189
rradius 35.2476
rwrist -22.9377
rhand -33.6314 -27.2181
rfingers 7.12502
rthumb -6.82378 -57.0882
lclavicle -3.18055e-014 -1.90833e-014
lhumerus -17.7778 14.9351 65.1076
lradius 33.2202
lwrist -2.99065
lhand -9.51821 -6.58406
lfingers 7.12502
lthumb 16.4476 22.7387
rfemur -66.2879 -3.11809 -25.4466
rtibia 59.427
rfoot -2.22019 1.85795
rtoes -26.2868
lfemur -71.1003 76.5975 38.098
ltibia 137.803
lfoot -27.8319 -56.0421
ltoes -31.4095
1288
root -4.33308 8.28773 -0.0911027 355.851 -19.4717 -15.6392
lowerback 22.523 -0.202561 -5.07377
upperback 13.3483 -1.46408 -1.52124
thorax 2.17468 -1.11784 1.51959
lowerneck -1.32848 -8.17104 -7.99043
upperneck 5.21364 -12.3813 21.7415
head 3.66697 -5.8954 7.45552
rclavicle 3.18055e-014 -1.90833e-014
rhumerus -3.79707 -15.3505 -84.5218
rradius 30.8806
rwrist -24.0192
rhand -31.5184 -31.7306
rfingers 7.12502
rthumb -4.78372 -61.6566
lclavicle 3.18055e-014 -1.90833e-014
lhumerus -17.415 13.1916 66.0306
lradius 37.51
lwrist -0.848805
lhand -16.0697 -6.85487
lfingers 7.12502
lthumb 10.1329 22.8811
rfemur -67.401 -2.82596 -26.4109
rtibia 55.6191
rfoot -0.843985 0.2474
rtoes -24.3584
lfemur -65.2998 77.6235 41.7362
ltibia 137.919
lfoot -34.975 -56.1826
ltoes -32.7799
